<svg xmlns="http://www.w3.org/2000/svg" xmlns:xlink="http://www.w3.org/1999/xlink" width="70px" height="70px" viewBox="0 0 70 70" version="1.1">
    <title>icon-cu 3</title>
    <g id="ðŸ–¥ï¸-Desktop" stroke="none" stroke-width="1" fill="none" fill-rule="evenodd">
        <g id="8.1-Recycling-" transform="translate(-150, -8039)">
            <g id="The-Northvolt-way" transform="translate(150, 7895)">
                <g id="icon-cu" transform="translate(0, 144)">
                    <g id="Cu" transform="translate(17.275, 22.7001)" fill="#191919" fill-rule="nonzero">
                        <path d="M9.87495747,21.599907 C15.2499343,21.599907 18.6499197,18.0999221 19.0999177,13.8249405 L15.324934,13.8249405 C14.7499365,16.6999281 12.6249456,18.3999208 9.92495726,18.3999208 C6.34997265,18.3999208 3.82498353,15.4749334 3.82498353,10.7999535 C3.82498353,6.12497362 6.34997265,3.19998622 9.92495726,3.19998622 C12.5249461,3.19998622 14.5999371,4.74997954 15.2249344,7.44996792 L18.9999182,7.44996792 C18.4749204,3.32498568 15.1249349,0 9.87495747,0 C3.64998428,0 0,4.69997976 0,10.7999535 C0,16.8999272 3.64998428,21.599907 9.87495747,21.599907 Z" id="Path"/>
                        <path d="M31.4749549,14.624937 C31.4749549,17.424925 29.7749622,18.7749191 27.7999707,18.7749191 C26.0749781,18.7749191 24.8749833,17.7499236 24.8749833,15.5999328 L24.8749833,6.29997287 L21.4999978,6.29997287 L21.4999978,16.4249293 C21.4999978,19.7499149 23.5749889,21.599907 26.5999759,21.599907 C28.899966,21.599907 30.749958,20.5249116 31.674954,18.799919 L31.674954,21.2999083 L34.8999401,21.2999083 L34.8999401,6.29997287 L31.4749549,6.29997287 L31.4749549,14.624937 Z" id="Path"/>
                    </g>
                    <g id="Copper" transform="translate(23.9867, 52.03)" fill="#191919" fill-rule="nonzero">
                        <path d="M2.22832374,5.0399783 C3.406652,5.0399783 4.15914876,4.2641483 4.29331484,3.27248591 L3.77415041,3.27248591 C3.61665109,4.08914906 3.02165365,4.59664687 2.23415705,4.59664687 C1.22499472,4.59664687 0.524997739,3.76831711 0.524997739,2.51998915 C0.524997739,1.27166119 1.22499472,0.443331424 2.23415705,0.443331424 C2.9808205,0.443331424 3.55831801,0.898329465 3.73915056,1.63915961 L4.258315,1.63915961 C4.08914906,0.711663602 3.35415222,0 2.22832374,0 C0.810829842,0 0,1.1374951 0,2.51998915 C0,3.90248319 0.810829842,5.0399783 2.22832374,5.0399783 Z" id="Path"/>
                        <path d="M6.41082632,5.0399783 C7.49582165,5.0399783 8.0966524,4.20581522 8.0966524,3.21998613 C8.0966524,2.23415705 7.49582165,1.39999397 6.41082632,1.39999397 C5.325831,1.39999397 4.72500025,2.23415705 4.72500025,3.21998613 C4.72500025,4.20581522 5.325831,5.0399783 6.41082632,5.0399783 Z M6.41082632,4.6899798 C5.69332941,4.6899798 5.20916483,4.11248229 5.20916483,3.21998613 C5.20916483,2.32748998 5.69332941,1.74999246 6.41082632,1.74999246 C7.12832323,1.74999246 7.61248782,2.32748998 7.61248782,3.21998613 C7.61248782,4.11248229 7.12832323,4.6899798 6.41082632,4.6899798 Z" id="Shape"/>
                        <path d="M10.4591586,1.39999397 C9.84666119,1.39999397 9.40916307,1.703326 9.15833082,2.15832404 L9.15833082,1.46999367 L8.70916609,1.46999367 L8.70916609,6.36997257 L9.18166405,6.36997257 L9.18166405,4.32248139 C9.43832962,4.75414619 9.86416111,5.0399783 10.4591586,5.0399783 C11.4741542,5.0399783 12.0341518,4.20581522 12.0341518,3.21998613 C12.0341518,2.23415705 11.4741542,1.39999397 10.4591586,1.39999397 Z M10.3599923,4.66664657 C9.66582864,4.66664657 9.16416413,4.09498237 9.16416413,3.21998613 C9.16416413,2.3449899 9.66582864,1.7733257 10.3599923,1.7733257 C11.0716559,1.7733257 11.5499872,2.3449899 11.5499872,3.21998613 C11.5499872,4.09498237 11.0716559,4.66664657 10.3599923,4.66664657 Z" id="Shape"/>
                        <path d="M14.3966586,1.39999397 C13.7841612,1.39999397 13.3466631,1.703326 13.0958308,2.15832404 L13.0958308,1.46999367 L12.6466661,1.46999367 L12.6466661,6.36997257 L13.1191641,6.36997257 L13.1191641,4.32248139 C13.3758296,4.75414619 13.8016611,5.0399783 14.3966586,5.0399783 C15.4116542,5.0399783 15.9716518,4.20581522 15.9716518,3.21998613 C15.9716518,2.23415705 15.4116542,1.39999397 14.3966586,1.39999397 Z M14.2974923,4.66664657 C13.6033286,4.66664657 13.1016641,4.09498237 13.1016641,3.21998613 C13.1016641,2.3449899 13.6033286,1.7733257 14.2974923,1.7733257 C15.0091559,1.7733257 15.4874872,2.3449899 15.4874872,3.21998613 C15.4874872,4.09498237 15.0091559,4.66664657 14.2974923,4.66664657 Z" id="Shape"/>
                        <path d="M19.704986,3.13248651 C19.704986,2.1991572 19.1449884,1.39999397 18.0716597,1.39999397 C16.9866644,1.39999397 16.3916669,2.22832374 16.3916669,3.21998613 C16.3916669,4.20581522 16.9924977,5.0399783 18.0891596,5.0399783 C18.8941561,5.0399783 19.4249872,4.59664687 19.6349863,3.97248289 L19.1449884,3.97248289 C18.9699891,4.42164763 18.5733242,4.6899798 18.077493,4.6899798 C17.3716627,4.6899798 16.8933314,4.15331545 16.8583316,3.32498568 L19.6933194,3.32498568 C19.6991527,3.26081929 19.704986,3.20831952 19.704986,3.13248651 Z M18.0716597,1.73832585 C18.7891566,1.73832585 19.1858216,2.25749028 19.232488,2.9866538 L16.8641649,2.9866538 C16.9341646,2.22832374 17.4008292,1.73832585 18.0716597,1.73832585 Z" id="Shape"/>
                        <path d="M21.8983259,1.46999367 C21.3849948,1.46999367 20.9591633,1.72082592 20.7608308,2.16999066 L20.7608308,1.46999367 L20.3174994,1.46999367 L20.3174994,4.9699786 L20.7899974,4.9699786 L20.7899974,3.04498689 C20.7899974,2.23999035 21.2916619,1.87832524 21.8341596,1.87832524 L22.1549915,1.87832524 L22.1549915,1.46999367 L21.8983259,1.46999367 Z" id="Path"/>
                    </g>
                    <g id="29" transform="translate(11.1958, 10.45)" fill="#191919" fill-rule="nonzero">
                        <path d="M1.91665841,2 C2.16665734,1.7874923 2.52915577,1.46666035 2.52915577,0.97916245 C2.52915577,0.479164603 2.14165744,0 1.34166089,0 C0.591664119,0 0.0874996232,0.437498116 0.0416664872,1.20832813 L0.508331144,1.20832813 C0.541664334,0.641663903 0.895829475,0.379165034 1.33749424,0.379165034 C1.78332565,0.379165034 2.05832447,0.658330498 2.05832447,0.995829045 C2.05832447,1.32499429 1.79999225,1.55832662 1.6166597,1.72915922 L0,3.18748627 L0,3.54998471 L2.6083221,3.54998471 L2.6083221,3.14998643 L0.641663903,3.14998643 L1.91665841,2 Z" id="Path"/>
                        <path d="M4.24166132,0 C3.43333147,0 2.95833351,0.529164388 2.95833351,1.14999505 C2.95833351,1.78332565 3.41249822,2.27915685 4.18332824,2.27915685 C4.72915922,2.27915685 5.10832425,2.02915793 5.2833235,1.66665949 L5.2833235,1.79999225 C5.2833235,2.72082162 4.84999203,3.22081946 4.26249456,3.22081946 C3.85832964,3.22081946 3.59583077,2.99165378 3.46666466,2.62082205 L3,2.62082205 C3.1708326,3.19581957 3.58333082,3.5999845 4.26249456,3.5999845 C5.14999074,3.5999845 5.70832167,2.86248767 5.70832167,1.7874923 C5.70832167,0.762496716 5.20415717,0 4.24166132,0 Z M4.25416127,1.93749166 C3.77083001,1.93749166 3.41666487,1.62915965 3.41666487,1.14999505 C3.41666487,0.670830444 3.77083001,0.362498439 4.25416127,0.362498439 C4.73332587,0.362498439 5.09999096,0.695830337 5.09999096,1.14999505 C5.09999096,1.62915965 4.72915922,1.93749166 4.25416127,1.93749166 Z" id="Shape"/>
                    </g>
                    <g id="63.545" transform="translate(43.0958, 10.45)" fill="#191919" fill-rule="nonzero">
                        <path d="M1.53749338,1.32082765 C0.974995801,1.32082765 0.58749747,1.59165981 0.429164818,1.98749144 C0.42499817,1.92082506 0.42499817,1.85832533 0.42499817,1.79999225 C0.42499817,0.879162881 0.858329637,0.379165034 1.44166046,0.379165034 C1.83332544,0.379165034 2.08749101,0.608330714 2.18749058,0.97916245 L2.65415524,0.97916245 C2.51248918,0.404164926 2.11665755,0 1.44166046,0 C0.558330929,0 0,0.737496824 0,1.81249219 C0,2.83748778 0.504164496,3.5999845 1.46666035,3.5999845 C2.2749902,3.5999845 2.74998816,3.07082011 2.74998816,2.44998945 C2.74998816,1.81665884 2.2999901,1.32082765 1.53749338,1.32082765 Z M1.45832705,3.23748606 C0.970829153,3.23748606 0.608330714,2.90415416 0.608330714,2.4458228 C0.608330714,1.99165809 0.958329206,1.66249284 1.4541604,1.66249284 C1.93749166,1.66249284 2.2916568,1.97082485 2.2916568,2.44998945 C2.2916568,2.9499873 1.91249176,3.23748606 1.45832705,3.23748606 Z" id="Shape"/>
                        <path d="M5.04999153,1.66665949 C5.40415667,1.54166003 5.59998916,1.28749446 5.59998916,0.929162665 C5.59998916,0.416664872 5.19999088,0 4.42082757,0 C3.64583091,0 3.18749955,0.45833136 3.14583306,1.03749553 L3.60833107,1.03749553 C3.64166426,0.612497362 3.97082951,0.35833179 4.42082757,0.35833179 C4.85832569,0.35833179 5.12915786,0.604164065 5.12915786,0.958329206 C5.12915786,1.32916094 4.8249925,1.52082678 4.39582768,1.52082678 L4.17082865,1.52082678 L4.17082865,1.85415868 L4.39999433,1.85415868 C4.92915872,1.85415868 5.25415732,2.09999096 5.25415732,2.51248918 C5.25415732,2.9333207 4.92499207,3.22498611 4.41666092,3.22498611 C3.90416313,3.22498611 3.55833129,2.9333207 3.49583156,2.4458228 L3.0291669,2.4458228 C3.09166663,3.10831995 3.54166469,3.5999845 4.41666092,3.5999845 C5.28332386,3.5999845 5.73748857,3.12081989 5.73748857,2.54165572 C5.73748857,2.12499085 5.49998959,1.81249219 5.04999153,1.66665949 Z" id="Path"/>
                        <path d="M6.3624988,3.58748455 C6.5249981,3.58748455 6.64999756,3.46665174 6.64999756,3.29998579 C6.64999756,3.13331984 6.5249981,3.01248703 6.3624988,3.01248703 C6.1999995,3.01248703 6.07500004,3.13331984 6.07500004,3.29998579 C6.07500004,3.46665174 6.1999995,3.58748455 6.3624988,3.58748455 Z" id="Path"/>
                        <path d="M8.44582711,1.21666143 C8.10832856,1.21666143 7.8208298,1.32499429 7.60833071,1.52499343 L7.84999634,0.437498116 L9.40415631,0.437498116 L9.40415631,0.0499997847 L7.49166455,0.0499997847 L7.07916633,1.99999139 L7.51666444,1.99999139 C7.67499709,1.72082592 7.98749575,1.56249327 8.3083277,1.56249327 C8.84582538,1.56249327 9.17082398,1.90415847 9.17082398,2.38332307 C9.17082398,2.90415416 8.81665884,3.22498611 8.32916094,3.22498611 C7.86249629,3.22498611 7.53749769,2.97915384 7.42499817,2.57498891 L6.95000022,2.57498891 C7.06666638,3.15831973 7.50833114,3.5999845 8.32916094,3.5999845 C9.14582409,3.5999845 9.65415524,3.09998665 9.65415524,2.37915642 C9.65415524,1.74165917 9.23749036,1.21666143 8.44582711,1.21666143 Z" id="Path"/>
                        <path d="M12.2499903,2.26249026 L12.2499903,0.0499997847 L11.8083255,0.0499997847 L9.96666681,2.22915707 L9.96666681,2.62915534 L11.7874923,2.62915534 L11.7874923,3.54998471 L12.2499903,3.54998471 L12.2499903,2.62915534 L12.7583215,2.62915534 L12.7583215,2.26249026 L12.2499903,2.26249026 Z M11.7874923,0.629163957 L11.7874923,2.26249026 L10.4124982,2.26249026 L11.7874923,0.629163957 Z" id="Shape"/>
                        <path d="M14.5291604,1.21666143 C14.1916619,1.21666143 13.9041631,1.32499429 13.691664,1.52499343 L13.9333297,0.437498116 L15.4874896,0.437498116 L15.4874896,0.0499997847 L13.5749979,0.0499997847 L13.1624997,1.99999139 L13.5999978,1.99999139 C13.7583304,1.72082592 14.0708291,1.56249327 14.391661,1.56249327 C14.9291587,1.56249327 15.2541573,1.90415847 15.2541573,2.38332307 C15.2541573,2.90415416 14.8999922,3.22498611 14.4124943,3.22498611 C13.9458296,3.22498611 13.620831,2.97915384 13.5083315,2.57498891 L13.0333335,2.57498891 C13.1499997,3.15831973 13.5916645,3.5999845 14.4124943,3.5999845 C15.2291574,3.5999845 15.7374886,3.09998665 15.7374886,2.37915642 C15.7374886,1.74165917 15.3208237,1.21666143 14.5291604,1.21666143 Z" id="Path"/>
                    </g>
                    <rect id="Rectangle" stroke="#000000" x="0.5" y="0.5" width="69" height="69" rx="8"/>
                </g>
            </g>
        </g>
    </g>
</svg>