<svg xmlns="http://www.w3.org/2000/svg" xmlns:xlink="http://www.w3.org/1999/xlink" width="70px" height="70px" viewBox="0 0 70 70" version="1.1">
    <title>icon-ai</title>
    <g id="ðŸ–¥ï¸-Desktop" stroke="none" stroke-width="1" fill="none" fill-rule="evenodd">
        <g id="8.1-Recycling-" transform="translate(-1014, -8039)">
            <g id="The-Northvolt-way" transform="translate(150, 7895)">
                <g id="icon-ai" transform="translate(864, 144)">
                    <g id="Li" transform="translate(24.85, 23.0001)" fill="#191919" fill-rule="nonzero">
                        <polygon id="Path" points="3.64998428 0 0 0 0 20.9999096 14.4249379 20.9999096 14.4249379 17.7999233 3.64998428 17.7999233"/>
                        <path d="M18.775002,4.17498202 C19.9249885,4.17498202 20.7749848,3.37498547 20.7749848,2.24999031 C20.7749848,1.12499516 19.9249885,0.3249986 18.775002,0.3249986 C17.6249984,0.3249986 16.775002,1.12499516 16.775002,2.24999031 C16.775002,3.37498547 17.6249984,4.17498202 18.775002,4.17498202 Z M20.4749861,20.9999096 L20.4749861,5.99997416 L17.0750008,5.99997416 L17.0750008,20.9999096 L20.4749861,20.9999096 Z" id="Shape"/>
                    </g>
                    <g id="Lithium" transform="translate(24.4767, 52.1)" fill="#191919" fill-rule="nonzero">
                        <polygon id="Path" points="0.501664506 0 0 0 0 4.8999789 3.16748636 4.8999789 3.16748636 4.45664747 0.501664506 4.45664747"/>
                        <path d="M4.07749927,0.834163074 C4.25249852,0.834163074 4.38666461,0.705830294 4.38666461,0.524997739 C4.38666461,0.344165185 4.25249852,0.215832404 4.07749927,0.215832404 C3.90250003,0.215832404 3.76833394,0.344165185 3.76833394,0.524997739 C3.76833394,0.705830294 3.90250003,0.834163074 4.07749927,0.834163074 Z M4.3108316,4.8999789 L4.3108316,1.39999397 L3.84416694,1.39999397 L3.84416694,4.8999789 L4.3108316,4.8999789 Z" id="Shape"/>
                        <path d="M6.95332625,1.39999397 L6.04333017,1.39999397 L6.04333017,0.349998493 L5.5708322,0.349998493 L5.5708322,1.39999397 L4.99333469,1.39999397 L4.99333469,1.74999246 L5.5708322,1.74999246 L5.5708322,4.09498237 C5.5708322,4.68414649 5.94416393,4.8999789 6.46916167,4.8999789 L6.95332625,4.8999789 L6.95332625,4.50914725 L6.5624946,4.50914725 C6.2066628,4.50914725 6.04333017,4.35164793 6.04333017,4.00164943 L6.04333017,1.74999246 L6.95332625,1.74999246 L6.95332625,1.39999397 Z" id="Path"/>
                        <path d="M9.23416006,1.32999427 C8.70332901,1.32999427 8.2658309,1.56915991 8.04416518,1.95999156 L8.04416518,0 L7.57166722,0 L7.57166722,4.8999789 L8.04416518,4.8999789 L8.04416518,2.82915448 C8.04416518,2.10582426 8.52832977,1.73249254 9.09999397,1.73249254 C9.59582517,1.73249254 9.93415705,2.01249133 9.93415705,2.57832223 L9.93415705,4.8999789 L10.406655,4.8999789 L10.406655,2.46748937 C10.406655,1.76165908 9.95165697,1.32999427 9.23416006,1.32999427 Z" id="Path"/>
                        <path d="M11.4858326,0.834163074 C11.6608319,0.834163074 11.7949979,0.705830294 11.7949979,0.524997739 C11.7949979,0.344165185 11.6608319,0.215832404 11.4858326,0.215832404 C11.3108334,0.215832404 11.1766673,0.344165185 11.1766673,0.524997739 C11.1766673,0.705830294 11.3108334,0.834163074 11.4858326,0.834163074 Z M11.7191649,4.8999789 L11.7191649,1.39999397 L11.2525003,1.39999397 L11.2525003,4.8999789 L11.7191649,4.8999789 Z" id="Shape"/>
                        <path d="M14.9274905,3.47081839 C14.9274905,4.1941486 14.4433259,4.56748033 13.8716617,4.56748033 C13.3758305,4.56748033 13.0374986,4.28748154 13.0374986,3.72165064 L13.0374986,1.39999397 L12.5650007,1.39999397 L12.5650007,3.8324835 C12.5650007,4.53831379 13.0199987,4.9699786 13.7374956,4.9699786 C14.2916599,4.9699786 14.7408246,4.70747973 14.956657,4.28164823 L14.956657,4.8999789 L15.3999884,4.8999789 L15.3999884,1.39999397 L14.9274905,1.39999397 L14.9274905,3.47081839 Z" id="Path"/>
                        <path d="M20.0666506,1.32999427 C19.5241529,1.32999427 19.0808215,1.59832645 18.8708224,2.03582457 C18.7249897,1.59249314 18.3458247,1.32999427 17.8149936,1.32999427 C17.2841626,1.32999427 16.8524978,1.59249314 16.648332,2.01832464 L16.648332,1.39999397 L16.2050006,1.39999397 L16.2050006,4.8999789 L16.6774985,4.8999789 L16.6774985,2.81748787 C16.6774985,2.10582426 17.1324966,1.73249254 17.6749942,1.73249254 C18.1416589,1.73249254 18.4624908,2.01249133 18.4624908,2.57248892 L18.4624908,4.8999789 L18.9349888,4.8999789 L18.9349888,2.81748787 C18.9349888,2.10582426 19.3958201,1.73249254 19.9324845,1.73249254 C20.3991492,1.73249254 20.7258144,2.01249133 20.7258144,2.57248892 L20.7258144,4.8999789 L21.1983124,4.8999789 L21.1983124,2.46748937 C21.1983124,1.76165908 20.7491477,1.32999427 20.0666506,1.32999427 Z" id="Path"/>
                    </g>
                    <g id="3" transform="translate(11.125, 10.45)" fill="#191919" fill-rule="nonzero">
                        <path d="M2.02082463,1.66665949 C2.37498977,1.54166003 2.57082226,1.28749446 2.57082226,0.929162665 C2.57082226,0.416664872 2.17082398,0 1.39166067,0 C0.616664011,0 0.158332651,0.45833136 0.116666164,1.03749553 L0.579164173,1.03749553 C0.612497362,0.612497362 0.941662611,0.35833179 1.39166067,0.35833179 C1.82915879,0.35833179 2.09999096,0.604164065 2.09999096,0.958329206 C2.09999096,1.32916094 1.7958256,1.52082678 1.36666078,1.52082678 L1.14166175,1.52082678 L1.14166175,1.85415868 L1.37082743,1.85415868 C1.89999182,1.85415868 2.22499042,2.09999096 2.22499042,2.51248918 C2.22499042,2.9333207 1.89582517,3.22498611 1.38749402,3.22498611 C0.874996232,3.22498611 0.529164388,2.9333207 0.466664657,2.4458228 L0,2.4458228 C0.0624997308,3.10831995 0.512497793,3.5999845 1.38749402,3.5999845 C2.25415696,3.5999845 2.70832167,3.12081989 2.70832167,2.54165572 C2.70832167,2.12499085 2.47082269,1.81249219 2.02082463,1.66665949 Z" id="Path"/>
                    </g>
                    <g id="6.94" transform="translate(49.0125, 10.45)" fill="#191919" fill-rule="nonzero">
                        <path d="M1.53749338,1.32082765 C0.974995801,1.32082765 0.58749747,1.59165981 0.429164818,1.98749144 C0.42499817,1.92082506 0.42499817,1.85832533 0.42499817,1.79999225 C0.42499817,0.879162881 0.858329637,0.379165034 1.44166046,0.379165034 C1.83332544,0.379165034 2.08749101,0.608330714 2.18749058,0.97916245 L2.65415524,0.97916245 C2.51248918,0.404164926 2.11665755,0 1.44166046,0 C0.558330929,0 0,0.737496824 0,1.81249219 C0,2.83748778 0.504164496,3.5999845 1.46666035,3.5999845 C2.2749902,3.5999845 2.74998816,3.07082011 2.74998816,2.44998945 C2.74998816,1.81665884 2.2999901,1.32082765 1.53749338,1.32082765 Z M1.45832705,3.23748606 C0.970829153,3.23748606 0.608330714,2.90415416 0.608330714,2.4458228 C0.608330714,1.99165809 0.958329206,1.66249284 1.4541604,1.66249284 C1.93749166,1.66249284 2.2916568,1.97082485 2.2916568,2.44998945 C2.2916568,2.9499873 1.91249176,3.23748606 1.45832705,3.23748606 Z" id="Shape"/>
                        <path d="M3.3624988,3.58748455 C3.5249981,3.58748455 3.64999756,3.46665174 3.64999756,3.29998579 C3.64999756,3.13331984 3.5249981,3.01248703 3.3624988,3.01248703 C3.1999995,3.01248703 3.07500004,3.13331984 3.07500004,3.29998579 C3.07500004,3.46665174 3.1999995,3.58748455 3.3624988,3.58748455 Z" id="Path"/>
                        <path d="M5.25832791,0 C4.44999806,0 3.97500011,0.529164388 3.97500011,1.14999505 C3.97500011,1.78332565 4.42916482,2.27915685 5.19999483,2.27915685 C5.74582582,2.27915685 6.12499085,2.02915793 6.2999901,1.66665949 L6.2999901,1.79999225 C6.2999901,2.72082162 5.86665863,3.22081946 5.27916116,3.22081946 C4.87499623,3.22081946 4.61249736,2.99165378 4.48333125,2.62082205 L4.01666659,2.62082205 C4.18749919,3.19581957 4.59999742,3.5999845 5.27916116,3.5999845 C6.16665734,3.5999845 6.72498826,2.86248767 6.72498826,1.7874923 C6.72498826,0.762496716 6.22082377,0 5.25832791,0 Z M5.27082786,1.93749166 C4.78749661,1.93749166 4.43333147,1.62915965 4.43333147,1.14999505 C4.43333147,0.670830444 4.78749661,0.362498439 5.27082786,0.362498439 C5.74999246,0.362498439 6.11665755,0.695830337 6.11665755,1.14999505 C6.11665755,1.62915965 5.74582582,1.93749166 5.27082786,1.93749166 Z" id="Shape"/>
                        <path d="M9.33332364,2.26249026 L9.33332364,0.0499997847 L8.89165888,0.0499997847 L7.05000014,2.22915707 L7.05000014,2.62915534 L8.87082564,2.62915534 L8.87082564,3.54998471 L9.33332364,3.54998471 L9.33332364,2.62915534 L9.84165479,2.62915534 L9.84165479,2.26249026 L9.33332364,2.26249026 Z M8.87082564,0.629163957 L8.87082564,2.26249026 L7.49583156,2.26249026 L8.87082564,0.629163957 Z" id="Shape"/>
                    </g>
                    <rect id="Rectangle" stroke="#000000" x="0.5" y="0.5" width="69" height="69" rx="8"/>
                </g>
            </g>
        </g>
    </g>
</svg>