<svg xmlns="http://www.w3.org/2000/svg" xmlns:xlink="http://www.w3.org/1999/xlink" width="70px" height="70px" viewBox="0 0 70 70" version="1.1">
    <title>icon-cu</title>
    <g id="ðŸ–¥ï¸-Desktop" stroke="none" stroke-width="1" fill="none" fill-rule="evenodd">
        <g id="8.1-Recycling-" transform="translate(-150, -8345)">
            <g id="The-Northvolt-way" transform="translate(150, 7895)">
                <g id="icon-cu" transform="translate(0, 450)">
                    <g id="Ni" transform="translate(22.6, 23.0001)" fill="#191919" fill-rule="nonzero">
                        <polygon id="Path" points="14.2749385 15.7499322 3.94998299 0 0 0 0 20.9999096 3.52498482 20.9999096 3.52498482 5.24997739 13.8499404 20.9999096 17.7999233 20.9999096 17.7999233 0 14.2749385 0"/>
                        <path d="M23.275002,4.17498202 C24.4249885,4.17498202 25.2749848,3.37498547 25.2749848,2.24999031 C25.2749848,1.12499516 24.4249885,0.3249986 23.275002,0.3249986 C22.1249984,0.3249986 21.275002,1.12499516 21.275002,2.24999031 C21.275002,3.37498547 22.1249984,4.17498202 23.275002,4.17498202 Z M24.9749861,20.9999096 L24.9749861,5.99997416 L21.5750008,5.99997416 L21.5750008,20.9999096 L24.9749861,20.9999096 Z" id="Shape"/>
                    </g>
                    <g id="Nickel" transform="translate(26.2704, 52.1)" fill="#191919" fill-rule="nonzero">
                        <polygon id="Path" points="3.4124853 4.14164883 0.536664356 0 0 0 0 4.8999789 0.484164582 4.8999789 0.484164582 0.758330068 3.35998553 4.8999789 3.89664989 4.8999789 3.89664989 0 3.4124853 0"/>
                        <path d="M5.12749927,0.834163074 C5.30249852,0.834163074 5.43666461,0.705830294 5.43666461,0.524997739 C5.43666461,0.344165185 5.30249852,0.215832404 5.12749927,0.215832404 C4.95250003,0.215832404 4.81833394,0.344165185 4.81833394,0.524997739 C4.81833394,0.705830294 4.95250003,0.834163074 5.12749927,0.834163074 Z M5.3608316,4.8999789 L5.3608316,1.39999397 L4.89416694,1.39999397 L4.89416694,4.8999789 L5.3608316,4.8999789 Z" id="Shape"/>
                        <path d="M7.72332746,4.9699786 C8.62165692,4.9699786 9.19332112,4.41581432 9.29832067,3.65748425 L8.80248947,3.65748425 C8.71498985,4.24664838 8.28332504,4.60831349 7.71749415,4.60831349 C7.00583054,4.60831349 6.52166596,4.03664928 6.52166596,3.14998643 C6.52166596,2.26332359 7.00583054,1.69165938 7.71749415,1.69165938 C8.2541585,1.69165938 8.66249008,2.00665803 8.77332293,2.53748907 L9.26915413,2.53748907 C9.14082135,1.83165878 8.58082376,1.32999427 7.72916076,1.32999427 C6.62666551,1.32999427 6.03750138,2.16999066 6.03750138,3.14998643 C6.03750138,4.13581552 6.63833213,4.9699786 7.72332746,4.9699786 Z" id="Path"/>
                        <polygon id="Path" points="12.7341549 4.8999789 11.164995 2.91665411 12.6466553 1.39999397 12.0691578 1.39999397 10.3483319 3.22581944 10.3483319 0 9.87583389 0 9.87583389 4.8999789 10.3483319 4.8999789 10.3483319 3.73331726 10.8499964 3.21998613 12.1566574 4.8999789"/>
                        <path d="M16.3799871,3.06248681 C16.3799871,2.1291575 15.8199895,1.32999427 14.7466608,1.32999427 C13.6616655,1.32999427 13.066668,2.15832404 13.066668,3.14998643 C13.066668,4.13581552 13.6674988,4.9699786 14.7641607,4.9699786 C15.5691573,4.9699786 16.0999883,4.52664717 16.3099874,3.90248319 L15.8199895,3.90248319 C15.6449903,4.35164793 15.2483253,4.6199801 14.7524941,4.6199801 C14.0466638,4.6199801 13.5683326,4.08331575 13.5333327,3.25498598 L16.3683205,3.25498598 C16.3741538,3.19081959 16.3799871,3.13831982 16.3799871,3.06248681 Z M14.7466608,1.66832615 C15.4641577,1.66832615 15.8608227,2.18749058 15.9074891,2.91665411 L13.539166,2.91665411 C13.6091657,2.15832404 14.0758304,1.66832615 14.7466608,1.66832615 Z" id="Shape"/>
                        <polygon id="Path" points="17.5233316 4.8999789 17.5233316 0 17.0566669 0 17.0566669 4.8999789"/>
                    </g>
                    <g id="28" transform="translate(11.1958, 10.45)" fill="#191919" fill-rule="nonzero">
                        <path d="M1.91665841,2 C2.16665734,1.7874923 2.52915577,1.46666035 2.52915577,0.97916245 C2.52915577,0.479164603 2.14165744,0 1.34166089,0 C0.591664119,0 0.0874996232,0.437498116 0.0416664872,1.20832813 L0.508331144,1.20832813 C0.541664334,0.641663903 0.895829475,0.379165034 1.33749424,0.379165034 C1.78332565,0.379165034 2.05832447,0.658330498 2.05832447,0.995829045 C2.05832447,1.32499429 1.79999225,1.55832662 1.6166597,1.72915922 L0,3.18748627 L0,3.54998471 L2.6083221,3.54998471 L2.6083221,3.14998643 L0.641663903,3.14998643 L1.91665841,2 Z" id="Path"/>
                        <path d="M5.01249133,1.63749295 C5.35832318,1.48749359 5.54165572,1.21249478 5.54165572,0.883329529 C5.54165572,0.383331683 5.11665755,0 4.34582754,0 C3.57499752,0 3.14999935,0.383331683 3.14999935,0.883329529 C3.14999935,1.21249478 3.3333319,1.48749359 3.67916374,1.63749295 C3.21249908,1.79999225 2.96250016,2.14582409 2.96250016,2.55832232 C2.96250016,3.14165314 3.44999806,3.5999845 4.34582754,3.5999845 C5.24165701,3.5999845 5.72915491,3.14581979 5.72915491,2.55832232 C5.72915491,2.14582409 5.47915599,1.79999225 5.01249133,1.63749295 Z M4.34582754,0.337498547 C4.779159,0.337498547 5.08332436,0.55416428 5.08332436,0.904162773 C5.08332436,1.25416127 4.779159,1.48332695 4.34582754,1.48332695 C3.91249607,1.48332695 3.60833071,1.25832791 3.60833071,0.904162773 C3.60833071,0.55416428 3.91249607,0.337498547 4.34582754,0.337498547 Z M4.34582754,3.23748606 C3.8124965,3.23748606 3.44166476,2.95832059 3.44166476,2.51248918 C3.44166476,2.07499106 3.8124965,1.79165895 4.34582754,1.79165895 C4.87915857,1.79165895 5.24999031,2.07499106 5.24999031,2.51248918 C5.24999031,2.95832059 4.87915857,3.23748606 4.34582754,3.23748606 Z" id="Shape"/>
                    </g>
                    <g id="58.693" transform="translate(42.9625, 10.45)" fill="#191919" fill-rule="nonzero">
                        <path d="M1.49582689,1.21666143 C1.15832835,1.21666143 0.870829583,1.32499429 0.658330498,1.52499343 L0.899996124,0.437498116 L2.4541561,0.437498116 L2.4541561,0.0499997847 L0.541664334,0.0499997847 L0.12916611,1.99999139 L0.566664226,1.99999139 C0.724996878,1.72082592 1.03749553,1.56249327 1.35832748,1.56249327 C1.89582517,1.56249327 2.22082377,1.90415847 2.22082377,2.38332307 C2.22082377,2.90415416 1.86665863,3.22498611 1.37916073,3.22498611 C0.91249607,3.22498611 0.58749747,2.97915384 0.474997954,2.57498891 L0,2.57498891 C0.116666164,3.15831973 0.558330929,3.5999845 1.37916073,3.5999845 C2.19582388,3.5999845 2.70415502,3.09998665 2.70415502,2.37915642 C2.70415502,1.74165917 2.28749015,1.21666143 1.49582689,1.21666143 Z" id="Path"/>
                        <path d="M5.07915771,1.63749295 C5.42498956,1.48749359 5.6083221,1.21249478 5.6083221,0.883329529 C5.6083221,0.383331683 5.18332393,0 4.41249392,0 C3.6416639,0 3.21666573,0.383331683 3.21666573,0.883329529 C3.21666573,1.21249478 3.39999828,1.48749359 3.74583012,1.63749295 C3.27916546,1.79999225 3.02916654,2.14582409 3.02916654,2.55832232 C3.02916654,3.14165314 3.51666444,3.5999845 4.41249392,3.5999845 C5.30832339,3.5999845 5.79582129,3.14581979 5.79582129,2.55832232 C5.79582129,2.14582409 5.54582237,1.79999225 5.07915771,1.63749295 Z M4.41249392,0.337498547 C4.84582538,0.337498547 5.14999074,0.55416428 5.14999074,0.904162773 C5.14999074,1.25416127 4.84582538,1.48332695 4.41249392,1.48332695 C3.97916245,1.48332695 3.67499709,1.25832791 3.67499709,0.904162773 C3.67499709,0.55416428 3.97916245,0.337498547 4.41249392,0.337498547 Z M4.41249392,3.23748606 C3.87916288,3.23748606 3.50833114,2.95832059 3.50833114,2.51248918 C3.50833114,2.07499106 3.87916288,1.79165895 4.41249392,1.79165895 C4.94582495,1.79165895 5.31665669,2.07499106 5.31665669,2.51248918 C5.31665669,2.95832059 4.94582495,3.23748606 4.41249392,3.23748606 Z" id="Shape"/>
                        <path d="M6.41249858,3.58748455 C6.57499788,3.58748455 6.69999734,3.46665174 6.69999734,3.29998579 C6.69999734,3.13331984 6.57499788,3.01248703 6.41249858,3.01248703 C6.24999928,3.01248703 6.12499982,3.13331984 6.12499982,3.29998579 C6.12499982,3.46665174 6.24999928,3.58748455 6.41249858,3.58748455 Z" id="Path"/>
                        <path d="M8.58749316,1.32082765 C8.02499559,1.32082765 7.63749725,1.59165981 7.4791646,1.98749144 C7.47499795,1.92082506 7.47499795,1.85832533 7.47499795,1.79999225 C7.47499795,0.879162881 7.90832942,0.379165034 8.49166024,0.379165034 C8.88332522,0.379165034 9.13749079,0.608330714 9.23749036,0.97916245 L9.70415502,0.97916245 C9.56248896,0.404164926 9.16665734,0 8.49166024,0 C7.60833071,0 7.04999978,0.737496824 7.04999978,1.81249219 C7.04999978,2.83748778 7.55416428,3.5999845 8.51666014,3.5999845 C9.32498999,3.5999845 9.79998794,3.07082011 9.79998794,2.44998945 C9.79998794,1.81665884 9.34998988,1.32082765 8.58749316,1.32082765 Z M8.50832684,3.23748606 C8.02082894,3.23748606 7.6583305,2.90415416 7.6583305,2.4458228 C7.6583305,1.99165809 8.00832899,1.66249284 8.50416019,1.66249284 C8.98749144,1.66249284 9.34165658,1.97082485 9.34165658,2.44998945 C9.34165658,2.9499873 8.96249155,3.23748606 8.50832684,3.23748606 Z" id="Shape"/>
                        <path d="M11.391661,0 C10.5833312,0 10.1083332,0.529164388 10.1083332,1.14999505 C10.1083332,1.78332565 10.5624979,2.27915685 11.333328,2.27915685 C11.8791589,2.27915685 12.258324,2.02915793 12.4333232,1.66665949 L12.4333232,1.79999225 C12.4333232,2.72082162 11.9999917,3.22081946 11.4124943,3.22081946 C11.0083293,3.22081946 10.7458305,2.99165378 10.6166644,2.62082205 L10.1499997,2.62082205 C10.3208323,3.19581957 10.7333305,3.5999845 11.4124943,3.5999845 C12.2999905,3.5999845 12.8583214,2.86248767 12.8583214,1.7874923 C12.8583214,0.762496716 12.3541569,0 11.391661,0 Z M11.404161,1.93749166 C10.9208297,1.93749166 10.5666646,1.62915965 10.5666646,1.14999505 C10.5666646,0.670830444 10.9208297,0.362498439 11.404161,0.362498439 C11.8833256,0.362498439 12.2499907,0.695830337 12.2499907,1.14999505 C12.2499907,1.62915965 11.8791589,1.93749166 11.404161,1.93749166 Z" id="Shape"/>
                        <path d="M15.1833246,1.66665949 C15.5374898,1.54166003 15.7333223,1.28749446 15.7333223,0.929162665 C15.7333223,0.416664872 15.333324,0 14.5541607,0 C13.779164,0 13.3208327,0.45833136 13.2791662,1.03749553 L13.7416642,1.03749553 C13.7749974,0.612497362 14.1041626,0.35833179 14.5541607,0.35833179 C14.9916588,0.35833179 15.262491,0.604164065 15.262491,0.958329206 C15.262491,1.32916094 14.9583256,1.52082678 14.5291608,1.52082678 L14.3041618,1.52082678 L14.3041618,1.85415868 L14.5333274,1.85415868 C15.0624918,1.85415868 15.3874904,2.09999096 15.3874904,2.51248918 C15.3874904,2.9333207 15.0583252,3.22498611 14.549994,3.22498611 C14.0374962,3.22498611 13.6916644,2.9333207 13.6291647,2.4458228 L13.1625,2.4458228 C13.2249997,3.10831995 13.6749978,3.5999845 14.549994,3.5999845 C15.416657,3.5999845 15.8708217,3.12081989 15.8708217,2.54165572 C15.8708217,2.12499085 15.6333227,1.81249219 15.1833246,1.66665949 Z" id="Path"/>
                    </g>
                    <rect id="Rectangle" stroke="#000000" x="0.5" y="0.5" width="69" height="69" rx="8"/>
                </g>
            </g>
        </g>
    </g>
</svg>