<svg xmlns="http://www.w3.org/2000/svg" xmlns:xlink="http://www.w3.org/1999/xlink" width="70px" height="70px" viewBox="0 0 70 70" version="1.1">
    <title>icon-ai</title>
    <g id="ðŸ–¥ï¸-Desktop" stroke="none" stroke-width="1" fill="none" fill-rule="evenodd">
        <g id="8.1-Recycling-" transform="translate(-438, -8345)">
            <g id="The-Northvolt-way" transform="translate(150, 7895)">
                <g id="icon-ai" transform="translate(288, 450)">
                    <g id="Mn" transform="translate(16.225, 23.0001)" fill="#191919" fill-rule="nonzero">
                        <polygon id="Path" points="21.0499093 0 16.4999289 0 10.5499546 15.8249319 4.59998019 0 0 0 0 20.9999096 3.37498547 20.9999096 3.37498547 5.32497707 9.1249607 20.9999096 11.7749493 20.9999096 17.5249245 5.32497707 17.5249245 20.9999096 21.0499093 20.9999096"/>
                        <path d="M32.899966,5.69997545 C30.5999759,5.69997545 28.7499839,6.79997072 27.8249878,8.4999634 L27.8249878,5.99997416 L24.6250016,5.99997416 L24.6250016,20.9999096 L28.024987,20.9999096 L28.024987,12.6749454 C28.024987,9.87495747 29.7499795,8.52496329 31.6999711,8.52496329 C33.4249637,8.52496329 34.6249586,9.52495898 34.6249586,11.6999496 L34.6249586,20.9999096 L37.999944,20.9999096 L37.999944,10.8749532 C37.999944,7.54996749 35.924953,5.69997545 32.899966,5.69997545 Z" id="Path"/>
                    </g>
                    <g id="Manganese" transform="translate(17.9579, 52.1)" fill="#191919" fill-rule="nonzero">
                        <polygon id="Path" points="4.65497995 0 4.0483159 0 2.33332328 4.19998191 0.624163979 0 0 0 0 4.8999789 0.466664657 4.8999789 0.466664657 0.793329917 2.1291575 4.8999789 2.50832253 4.8999789 4.17081537 0.7816633 4.17081537 4.8999789 4.65497995 4.8999789"/>
                        <path d="M8.69748716,4.53831379 C8.42915499,4.53831379 8.33582205,4.39248108 8.33582205,4.14164883 L8.33582205,2.49665591 C8.33582205,1.80832555 7.89832394,1.32999427 7.02332771,1.32999427 C6.20666456,1.32999427 5.65833358,1.74999246 5.56500065,2.46748937 L6.04916523,2.46748937 C6.11333163,1.94832494 6.48666335,1.66832615 7.02332771,1.66832615 C7.57165868,1.66832615 7.87499071,1.98332479 7.87499071,2.4849893 L7.87499071,2.69498839 L6.4516635,2.97498719 C5.75166652,3.10915328 5.41916795,3.45915177 5.41916795,3.9783162 C5.41916795,4.59081356 5.90916584,4.93497875 6.57416297,4.93497875 C7.16916041,4.93497875 7.67082492,4.67831319 7.89832394,4.258315 C7.91582386,4.69581311 8.1549895,4.8999789 8.56332107,4.8999789 L8.76748686,4.8999789 L8.76748686,4.53831379 L8.69748716,4.53831379 Z M7.87499071,3.51165154 C7.87499071,4.14164883 7.34999297,4.59664687 6.68499583,4.59664687 C6.20666456,4.59664687 5.8858326,4.36914785 5.8858326,3.95498297 C5.8858326,3.61081778 6.11333163,3.39498538 6.60916282,3.28415252 L7.87499071,3.00998704 L7.87499071,3.51165154 Z" id="Shape"/>
                        <path d="M11.0133267,1.34166089 C10.4591624,1.34166089 10.0099977,1.60415976 9.79416531,2.02999126 L9.79416531,1.39999397 L9.35083389,1.39999397 L9.35083389,4.8999789 L9.82333185,4.8999789 L9.82333185,2.8408211 C9.82333185,2.11749088 10.3074964,1.74415916 10.8791606,1.74415916 C11.3749918,1.74415916 11.7133237,2.02415795 11.7133237,2.58998885 L11.7133237,4.8999789 L12.1858217,4.8999789 L12.1858217,2.47915599 C12.1858217,1.7733257 11.7308236,1.34166089 11.0133267,1.34166089 Z" id="Path"/>
                        <path d="M15.5341562,2.08249103 C15.2949905,1.63915961 14.8749923,1.34166089 14.2858282,1.34166089 C13.3116657,1.34166089 12.7750014,2.14082411 12.7750014,3.07415343 C12.7750014,4.01331605 13.3116657,4.81247928 14.2858282,4.81247928 C14.8749923,4.81247928 15.2949905,4.51498056 15.5341562,4.06581582 L15.5341562,5.01081175 C15.5341562,5.65830897 15.1258246,6.03164069 14.414161,6.03164069 C13.8191636,6.03164069 13.4633318,5.73997528 13.3816654,5.24997739 L12.8975009,5.24997739 C12.9966671,5.93247445 13.5274981,6.36997257 14.4199943,6.36997257 C15.4758231,6.36997257 15.9833209,5.80414167 15.9833209,5.02831168 L15.9833209,1.39999397 L15.5341562,1.39999397 L15.5341562,2.08249103 Z M14.3908278,4.43331424 C13.714164,4.43331424 13.259166,3.89081658 13.259166,3.07415343 C13.259166,2.24582366 13.714164,1.71499261 14.3908278,1.71499261 C15.0616582,1.71499261 15.5283229,2.25165697 15.5283229,3.07415343 C15.5283229,3.89081658 15.0616582,4.43331424 14.3908278,4.43331424 Z" id="Shape"/>
                        <path d="M19.8974872,4.53831379 C19.629155,4.53831379 19.5358221,4.39248108 19.5358221,4.14164883 L19.5358221,2.49665591 C19.5358221,1.80832555 19.0983239,1.32999427 18.2233277,1.32999427 C17.4066646,1.32999427 16.8583336,1.74999246 16.7650007,2.46748937 L17.2491652,2.46748937 C17.3133316,1.94832494 17.6866634,1.66832615 18.2233277,1.66832615 C18.7716587,1.66832615 19.0749907,1.98332479 19.0749907,2.4849893 L19.0749907,2.69498839 L17.6516635,2.97498719 C16.9516665,3.10915328 16.6191679,3.45915177 16.6191679,3.9783162 C16.6191679,4.59081356 17.1091658,4.93497875 17.774163,4.93497875 C18.3691604,4.93497875 18.8708249,4.67831319 19.0983239,4.258315 C19.1158239,4.69581311 19.3549895,4.8999789 19.7633211,4.8999789 L19.9674869,4.8999789 L19.9674869,4.53831379 L19.8974872,4.53831379 Z M19.0749907,3.51165154 C19.0749907,4.14164883 18.549993,4.59664687 17.8849958,4.59664687 C17.4066646,4.59664687 17.0858326,4.36914785 17.0858326,3.95498297 C17.0858326,3.61081778 17.3133316,3.39498538 17.8091628,3.28415252 L19.0749907,3.00998704 L19.0749907,3.51165154 Z" id="Shape"/>
                        <path d="M22.2133267,1.34166089 C21.6591624,1.34166089 21.2099977,1.60415976 20.9941653,2.02999126 L20.9941653,1.39999397 L20.5508339,1.39999397 L20.5508339,4.8999789 L21.0233319,4.8999789 L21.0233319,2.8408211 C21.0233319,2.11749088 21.5074964,1.74415916 22.0791606,1.74415916 C22.5749918,1.74415916 22.9133237,2.02415795 22.9133237,2.58998885 L22.9133237,4.8999789 L23.3858217,4.8999789 L23.3858217,2.47915599 C23.3858217,1.7733257 22.9308236,1.34166089 22.2133267,1.34166089 Z" id="Path"/>
                        <path d="M27.2883204,3.06248681 C27.2883204,2.1291575 26.7283229,1.32999427 25.6549941,1.32999427 C24.5699988,1.32999427 23.9750014,2.15832404 23.9750014,3.14998643 C23.9750014,4.13581552 24.5758321,4.9699786 25.6724941,4.9699786 C26.4774906,4.9699786 27.0083217,4.52664717 27.2183207,3.90248319 L26.7283229,3.90248319 C26.5533236,4.35164793 26.1566587,4.6199801 25.6608275,4.6199801 C24.9549972,4.6199801 24.4766659,4.08331575 24.441666,3.25498598 L27.2766538,3.25498598 C27.2824871,3.19081959 27.2883204,3.13831982 27.2883204,3.06248681 Z M25.6549941,1.66832615 C26.3724911,1.66832615 26.769156,2.18749058 26.8158225,2.91665411 L24.4474993,2.91665411 C24.517499,2.15832404 24.9841637,1.66832615 25.6549941,1.66832615 Z" id="Shape"/>
                        <path d="M29.2541614,4.9699786 C30.0358247,4.9699786 30.6424887,4.60248018 30.6424887,3.94331635 C30.6424887,3.28998583 30.0708245,3.08582004 29.6333264,2.99248711 L28.962496,2.84665441 C28.659164,2.78832133 28.2799989,2.67165516 28.2799989,2.28082351 C28.2799989,1.90165848 28.6533306,1.66832615 29.1199953,1.66832615 C29.5924933,1.66832615 29.9774916,1.91332509 30.0824912,2.32748998 L30.5549891,2.32748998 C30.4441563,1.71499261 29.8841587,1.32999427 29.1199953,1.32999427 C28.4374982,1.32999427 27.8250009,1.67999277 27.8250009,2.32748998 C27.8250009,2.93415403 28.3616652,3.12081989 28.7641635,3.20831952 L29.4349939,3.34831891 C29.662493,3.40081869 30.1758241,3.49998493 30.1758241,3.9783162 C30.1758241,4.38081447 29.814159,4.63164672 29.2541614,4.63164672 C28.7116637,4.63164672 28.2799989,4.39248108 28.1633328,3.90248319 L27.6850015,3.90248319 C27.8133343,4.58498025 28.4083317,4.9699786 29.2541614,4.9699786 Z" id="Path"/>
                        <path d="M34.4049871,3.06248681 C34.4049871,2.1291575 33.8449895,1.32999427 32.7716608,1.32999427 C31.6866655,1.32999427 31.091668,2.15832404 31.091668,3.14998643 C31.091668,4.13581552 31.6924988,4.9699786 32.7891607,4.9699786 C33.5941573,4.9699786 34.1249883,4.52664717 34.3349874,3.90248319 L33.8449895,3.90248319 C33.6699903,4.35164793 33.2733253,4.6199801 32.7774941,4.6199801 C32.0716638,4.6199801 31.5933326,4.08331575 31.5583327,3.25498598 L34.3933205,3.25498598 C34.3991538,3.19081959 34.4049871,3.13831982 34.4049871,3.06248681 Z M32.7716608,1.66832615 C33.4891577,1.66832615 33.8858227,2.18749058 33.9324891,2.91665411 L31.564166,2.91665411 C31.6341657,2.15832404 32.1008304,1.66832615 32.7716608,1.66832615 Z" id="Shape"/>
                    </g>
                    <g id="25" transform="translate(11.1958, 10.45)" fill="#191919" fill-rule="nonzero">
                        <path d="M1.91665841,2 C2.16665734,1.7874923 2.52915577,1.46666035 2.52915577,0.97916245 C2.52915577,0.479164603 2.14165744,0 1.34166089,0 C0.591664119,0 0.0874996232,0.437498116 0.0416664872,1.20832813 L0.508331144,1.20832813 C0.541664334,0.641663903 0.895829475,0.379165034 1.33749424,0.379165034 C1.78332565,0.379165034 2.05832447,0.658330498 2.05832447,0.995829045 C2.05832447,1.32499429 1.79999225,1.55832662 1.6166597,1.72915922 L0,3.18748627 L0,3.54998471 L2.6083221,3.54998471 L2.6083221,3.14998643 L0.641663903,3.14998643 L1.91665841,2 Z" id="Path"/>
                        <path d="M4.42916051,1.21666143 C4.09166197,1.21666143 3.8041632,1.32499429 3.59166412,1.52499343 L3.83332974,0.437498116 L5.38748972,0.437498116 L5.38748972,0.0499997847 L3.47499795,0.0499997847 L3.06249973,1.99999139 L3.49999785,1.99999139 C3.6583305,1.72082592 3.97082915,1.56249327 4.2916611,1.56249327 C4.82915879,1.56249327 5.15415739,1.90415847 5.15415739,2.38332307 C5.15415739,2.90415416 4.79999225,3.22498611 4.31249435,3.22498611 C3.84582969,3.22498611 3.52083109,2.97915384 3.40833157,2.57498891 L2.93333362,2.57498891 C3.04999978,3.15831973 3.49166455,3.5999845 4.31249435,3.5999845 C5.1291575,3.5999845 5.63748864,3.09998665 5.63748864,2.37915642 C5.63748864,1.74165917 5.22082377,1.21666143 4.42916051,1.21666143 Z" id="Path"/>
                    </g>
                    <g id="54.938" transform="translate(42.9625, 10.45)" fill="#191919" fill-rule="nonzero">
                        <path d="M1.49582689,1.21666143 C1.15832835,1.21666143 0.870829583,1.32499429 0.658330498,1.52499343 L0.899996124,0.437498116 L2.4541561,0.437498116 L2.4541561,0.0499997847 L0.541664334,0.0499997847 L0.12916611,1.99999139 L0.566664226,1.99999139 C0.724996878,1.72082592 1.03749553,1.56249327 1.35832748,1.56249327 C1.89582517,1.56249327 2.22082377,1.90415847 2.22082377,2.38332307 C2.22082377,2.90415416 1.86665863,3.22498611 1.37916073,3.22498611 C0.91249607,3.22498611 0.58749747,2.97915384 0.474997954,2.57498891 L0,2.57498891 C0.116666164,3.15831973 0.558330929,3.5999845 1.37916073,3.5999845 C2.19582388,3.5999845 2.70415502,3.09998665 2.70415502,2.37915642 C2.70415502,1.74165917 2.28749015,1.21666143 1.49582689,1.21666143 Z" id="Path"/>
                        <path d="M5.2999901,2.26249026 L5.2999901,0.0499997847 L4.85832533,0.0499997847 L3.01666659,2.22915707 L3.01666659,2.62915534 L4.83749209,2.62915534 L4.83749209,3.54998471 L5.2999901,3.54998471 L5.2999901,2.62915534 L5.80832124,2.62915534 L5.80832124,2.26249026 L5.2999901,2.26249026 Z M4.83749209,0.629163957 L4.83749209,2.26249026 L3.46249801,2.26249026 L4.83749209,0.629163957 Z" id="Shape"/>
                        <path d="M6.41249858,3.58748455 C6.57499788,3.58748455 6.69999734,3.46665174 6.69999734,3.29998579 C6.69999734,3.13331984 6.57499788,3.01248703 6.41249858,3.01248703 C6.24999928,3.01248703 6.12499982,3.13331984 6.12499982,3.29998579 C6.12499982,3.46665174 6.24999928,3.58748455 6.41249858,3.58748455 Z" id="Path"/>
                        <path d="M8.3083277,0 C7.49999785,0 7.02499989,0.529164388 7.02499989,1.14999505 C7.02499989,1.78332565 7.4791646,2.27915685 8.24999462,2.27915685 C8.7958256,2.27915685 9.17499063,2.02915793 9.34998988,1.66665949 L9.34998988,1.79999225 C9.34998988,2.72082162 8.91665841,3.22081946 8.32916094,3.22081946 C7.92499602,3.22081946 7.66249715,2.99165378 7.53333104,2.62082205 L7.06666638,2.62082205 C7.23749898,3.19581957 7.6499972,3.5999845 8.32916094,3.5999845 C9.21665712,3.5999845 9.77498805,2.86248767 9.77498805,1.7874923 C9.77498805,0.762496716 9.27082355,0 8.3083277,0 Z M8.32082765,1.93749166 C7.83749639,1.93749166 7.48333125,1.62915965 7.48333125,1.14999505 C7.48333125,0.670830444 7.83749639,0.362498439 8.32082765,0.362498439 C8.79999225,0.362498439 9.16665734,0.695830337 9.16665734,1.14999505 C9.16665734,1.62915965 8.7958256,1.93749166 8.32082765,1.93749166 Z" id="Shape"/>
                        <path d="M12.0999913,1.66665949 C12.4541565,1.54166003 12.6499889,1.28749446 12.6499889,0.929162665 C12.6499889,0.416664872 12.2499907,0 11.4708274,0 C10.6958307,0 10.2374993,0.45833136 10.1958328,1.03749553 L10.6583309,1.03749553 C10.691664,0.612497362 11.0208293,0.35833179 11.4708274,0.35833179 C11.9083255,0.35833179 12.1791576,0.604164065 12.1791576,0.958329206 C12.1791576,1.32916094 11.8749923,1.52082678 11.4458275,1.52082678 L11.2208284,1.52082678 L11.2208284,1.85415868 L11.4499941,1.85415868 C11.9791585,1.85415868 12.3041571,2.09999096 12.3041571,2.51248918 C12.3041571,2.9333207 11.9749919,3.22498611 11.4666607,3.22498611 C10.9541629,3.22498611 10.6083311,2.9333207 10.5458313,2.4458228 L10.0791667,2.4458228 C10.1416664,3.10831995 10.5916645,3.5999845 11.4666607,3.5999845 C12.3333236,3.5999845 12.7874884,3.12081989 12.7874884,2.54165572 C12.7874884,2.12499085 12.5499894,1.81249219 12.0999913,1.66665949 Z" id="Path"/>
                        <path d="M15.162491,1.63749295 C15.5083229,1.48749359 15.6916554,1.21249478 15.6916554,0.883329529 C15.6916554,0.383331683 15.2666573,0 14.4958273,0 C13.7249972,0 13.2999991,0.383331683 13.2999991,0.883329529 C13.2999991,1.21249478 13.4833316,1.48749359 13.8291635,1.63749295 C13.3624988,1.79999225 13.1124999,2.14582409 13.1124999,2.55832232 C13.1124999,3.14165314 13.5999978,3.5999845 14.4958273,3.5999845 C15.3916567,3.5999845 15.8791546,3.14581979 15.8791546,2.55832232 C15.8791546,2.14582409 15.6291557,1.79999225 15.162491,1.63749295 Z M14.4958273,0.337498547 C14.9291587,0.337498547 15.2333241,0.55416428 15.2333241,0.904162773 C15.2333241,1.25416127 14.9291587,1.48332695 14.4958273,1.48332695 C14.0624958,1.48332695 13.7583304,1.25832791 13.7583304,0.904162773 C13.7583304,0.55416428 14.0624958,0.337498547 14.4958273,0.337498547 Z M14.4958273,3.23748606 C13.9624962,3.23748606 13.5916645,2.95832059 13.5916645,2.51248918 C13.5916645,2.07499106 13.9624962,1.79165895 14.4958273,1.79165895 C15.0291583,1.79165895 15.39999,2.07499106 15.39999,2.51248918 C15.39999,2.95832059 15.0291583,3.23748606 14.4958273,3.23748606 Z" id="Shape"/>
                    </g>
                    <rect id="Rectangle" stroke="#000000" x="0.5" y="0.5" width="69" height="69" rx="8"/>
                </g>
            </g>
        </g>
    </g>
</svg>