<svg xmlns="http://www.w3.org/2000/svg" xmlns:xlink="http://www.w3.org/1999/xlink" width="70px" height="70px" viewBox="0 0 70 70" version="1.1">
    <title>icon-ai</title>
    <g id="ðŸ–¥ï¸-Desktop" stroke="none" stroke-width="1" fill="none" fill-rule="evenodd">
        <g id="8.1-Recycling-" transform="translate(-438, -8039)">
            <g id="The-Northvolt-way" transform="translate(150, 7895)">
                <g id="icon-ai" transform="translate(288, 144)">
                    <g id="AI" transform="translate(21.275, 23.0001)" fill="#191919" fill-rule="nonzero">
                        <path d="M19.6999152,20.9999096 L11.8999488,0 L7.79996641,0 L0,20.9999096 L3.67498417,20.9999096 L5.47497642,15.8249319 L13.92494,15.8249319 L15.7249323,20.9999096 L19.6999152,20.9999096 Z M9.69995823,3.77498374 L12.9499442,13.0499438 L6.44997222,13.0499438 L9.69995823,3.77498374 Z" id="Shape"/>
                        <polygon id="Path" points="25.7999772 20.9999096 25.7999772 0 22.1499929 0 22.1499929 20.9999096"/>
                    </g>
                    <g id="Aluminium" transform="translate(19.5533, 52.1)" fill="#191919" fill-rule="nonzero">
                        <path d="M4.29331484,4.8999789 L2.42665622,0 L1.86665863,0 L0,4.8999789 L0.507497814,4.8999789 L1.04416217,3.45331846 L3.20831952,3.45331846 L3.74498387,4.8999789 L4.29331484,4.8999789 Z M2.1291575,0.513331123 L3.06832012,3.06248681 L1.18416157,3.06248681 L2.1291575,0.513331123 Z" id="Shape"/>
                        <polygon id="Path" points="5.35499653 4.8999789 5.35499653 0 4.88833188 0 4.88833188 4.8999789"/>
                        <path d="M8.56332208,3.47081839 C8.56332208,4.1941486 8.0791575,4.56748033 7.50749329,4.56748033 C7.01166209,4.56748033 6.67333022,4.28748154 6.67333022,3.72165064 L6.67333022,1.39999397 L6.20083225,1.39999397 L6.20083225,3.8324835 C6.20083225,4.53831379 6.65583029,4.9699786 7.3733272,4.9699786 C7.92749148,4.9699786 8.37665622,4.70747973 8.59248862,4.28164823 L8.59248862,4.8999789 L9.03582004,4.8999789 L9.03582004,1.39999397 L8.56332208,1.39999397 L8.56332208,3.47081839 Z" id="Path"/>
                        <path d="M13.7024822,1.32999427 C13.1599845,1.32999427 12.7166531,1.59832645 12.506654,2.03582457 C12.3608213,1.59249314 11.9816563,1.32999427 11.4508252,1.32999427 C10.9199942,1.32999427 10.4883294,1.59249314 10.2841636,2.01832464 L10.2841636,1.39999397 L9.84083215,1.39999397 L9.84083215,4.8999789 L10.3133301,4.8999789 L10.3133301,2.81748787 C10.3133301,2.10582426 10.7683282,1.73249254 11.3108258,1.73249254 C11.7774905,1.73249254 12.0983224,2.01249133 12.0983224,2.57248892 L12.0983224,4.8999789 L12.5708204,4.8999789 L12.5708204,2.81748787 C12.5708204,2.10582426 13.0316517,1.73249254 13.5683161,1.73249254 C14.0349808,1.73249254 14.361646,2.01249133 14.361646,2.57248892 L14.361646,4.8999789 L14.834144,4.8999789 L14.834144,2.46748937 C14.834144,1.76165908 14.3849793,1.32999427 13.7024822,1.32999427 Z" id="Path"/>
                        <path d="M15.9133309,0.834163074 C16.0883301,0.834163074 16.2224962,0.705830294 16.2224962,0.524997739 C16.2224962,0.344165185 16.0883301,0.215832404 15.9133309,0.215832404 C15.7383316,0.215832404 15.6041655,0.344165185 15.6041655,0.524997739 C15.6041655,0.705830294 15.7383316,0.834163074 15.9133309,0.834163074 Z M16.1466632,4.8999789 L16.1466632,1.39999397 L15.6799985,1.39999397 L15.6799985,4.8999789 L16.1466632,4.8999789 Z" id="Shape"/>
                        <path d="M18.678325,1.34166089 C18.1241607,1.34166089 17.674996,1.60415976 17.4591636,2.02999126 L17.4591636,1.39999397 L17.0158322,1.39999397 L17.0158322,4.8999789 L17.4883301,4.8999789 L17.4883301,2.8408211 C17.4883301,2.11749088 17.9724947,1.74415916 18.5441589,1.74415916 C19.0399901,1.74415916 19.378322,2.02415795 19.378322,2.58998885 L19.378322,4.8999789 L19.8508199,4.8999789 L19.8508199,2.47915599 C19.8508199,1.7733257 19.3958219,1.34166089 18.678325,1.34166089 Z" id="Path"/>
                        <path d="M20.9299975,0.834163074 C21.1049968,0.834163074 21.2391629,0.705830294 21.2391629,0.524997739 C21.2391629,0.344165185 21.1049968,0.215832404 20.9299975,0.215832404 C20.7549983,0.215832404 20.6208322,0.344165185 20.6208322,0.524997739 C20.6208322,0.705830294 20.7549983,0.834163074 20.9299975,0.834163074 Z M21.1633299,4.8999789 L21.1633299,1.39999397 L20.6966652,1.39999397 L20.6966652,4.8999789 L21.1633299,4.8999789 Z" id="Shape"/>
                        <path d="M24.3716554,3.47081839 C24.3716554,4.1941486 23.8874908,4.56748033 23.3158266,4.56748033 C22.8199954,4.56748033 22.4816636,4.28748154 22.4816636,3.72165064 L22.4816636,1.39999397 L22.0091656,1.39999397 L22.0091656,3.8324835 C22.0091656,4.53831379 22.4641636,4.9699786 23.1816605,4.9699786 C23.7358248,4.9699786 24.1849895,4.70747973 24.400822,4.28164823 L24.400822,4.8999789 L24.8441534,4.8999789 L24.8441534,1.39999397 L24.3716554,1.39999397 L24.3716554,3.47081839 Z" id="Path"/>
                        <path d="M29.5108155,1.32999427 C28.9683179,1.32999427 28.5249864,1.59832645 28.3149873,2.03582457 C28.1691546,1.59249314 27.7899896,1.32999427 27.2591586,1.32999427 C26.7283275,1.32999427 26.2966627,1.59249314 26.0924969,2.01832464 L26.0924969,1.39999397 L25.6491655,1.39999397 L25.6491655,4.8999789 L26.1216635,4.8999789 L26.1216635,2.81748787 C26.1216635,2.10582426 26.5766615,1.73249254 27.1191592,1.73249254 C27.5858238,1.73249254 27.9066558,2.01249133 27.9066558,2.57248892 L27.9066558,4.8999789 L28.3791537,4.8999789 L28.3791537,2.81748787 C28.3791537,2.10582426 28.8399851,1.73249254 29.3766494,1.73249254 C29.8433141,1.73249254 30.1699794,2.01249133 30.1699794,2.57248892 L30.1699794,4.8999789 L30.6424773,4.8999789 L30.6424773,2.46748937 C30.6424773,1.76165908 30.1933126,1.32999427 29.5108155,1.32999427 Z" id="Path"/>
                    </g>
                    <g id="13" transform="translate(11.1125, 10.45)" fill="#191919" fill-rule="nonzero">
                        <polygon id="Path" points="0 0.545830983 0 1.00416234 0.741663473 0.58749747 0.741663473 3.54998471 1.22499472 3.54998471 1.22499472 0.0499997847 0.883329529 0.0499997847"/>
                        <path d="M3.69999124,1.66665949 C4.05415639,1.54166003 4.24998888,1.28749446 4.24998888,0.929162665 C4.24998888,0.416664872 3.8499906,0 3.07082729,0 C2.29583062,0 1.83749926,0.45833136 1.79583278,1.03749553 L2.25833079,1.03749553 C2.29166398,0.612497362 2.62082922,0.35833179 3.07082729,0.35833179 C3.5083254,0.35833179 3.77915757,0.604164065 3.77915757,0.958329206 C3.77915757,1.32916094 3.47499221,1.52082678 3.04582739,1.52082678 L2.82082836,1.52082678 L2.82082836,1.85415868 L3.04999404,1.85415868 C3.57915843,1.85415868 3.90415703,2.09999096 3.90415703,2.51248918 C3.90415703,2.9333207 3.57499178,3.22498611 3.06666064,3.22498611 C2.55416284,3.22498611 2.208331,2.9333207 2.14583127,2.4458228 L1.67916661,2.4458228 C1.74166634,3.10831995 2.19166441,3.5999845 3.06666064,3.5999845 C3.93332357,3.5999845 4.38748828,3.12081989 4.38748828,2.54165572 C4.38748828,2.12499085 4.14998931,1.81249219 3.69999124,1.66665949 Z" id="Path"/>
                    </g>
                    <g id="26.982" transform="translate(43.0292, 11.45)" fill="#191919" fill-rule="nonzero">
                        <path d="M1.91665841,2 C2.16665734,1.7874923 2.52915577,1.46666035 2.52915577,0.97916245 C2.52915577,0.479164603 2.14165744,0 1.34166089,0 C0.591664119,0 0.0874996232,0.437498116 0.0416664872,1.20832813 L0.508331144,1.20832813 C0.541664334,0.641663903 0.895829475,0.379165034 1.33749424,0.379165034 C1.78332565,0.379165034 2.05832447,0.658330498 2.05832447,0.995829045 C2.05832447,1.32499429 1.79999225,1.55832662 1.6166597,1.72915922 L0,3.18748627 L0,3.54998471 L2.6083221,3.54998471 L2.6083221,3.14998643 L0.641663903,3.14998643 L1.91665841,2 Z" id="Path"/>
                        <path d="M4.52082678,1.32082765 C3.95832921,1.32082765 3.57083088,1.59165981 3.41249822,1.98749144 C3.40833157,1.92082506 3.40833157,1.85832533 3.40833157,1.79999225 C3.40833157,0.879162881 3.84166304,0.379165034 4.42499386,0.379165034 C4.81665884,0.379165034 5.07082442,0.608330714 5.17082398,0.97916245 L5.63748864,0.97916245 C5.49582259,0.404164926 5.09999096,0 4.42499386,0 C3.54166433,0 2.98333341,0.737496824 2.98333341,1.81249219 C2.98333341,2.83748778 3.4874979,3.5999845 4.44999376,3.5999845 C5.25832361,3.5999845 5.73332156,3.07082011 5.73332156,2.44998945 C5.73332156,1.81665884 5.2833235,1.32082765 4.52082678,1.32082765 Z M4.44166046,3.23748606 C3.95416256,3.23748606 3.59166412,2.90415416 3.59166412,2.4458228 C3.59166412,1.99165809 3.94166261,1.66249284 4.43749381,1.66249284 C4.92082506,1.66249284 5.2749902,1.97082485 5.2749902,2.44998945 C5.2749902,2.9499873 4.89582517,3.23748606 4.44166046,3.23748606 Z" id="Shape"/>
                        <path d="M6.3458322,3.58748455 C6.5083315,3.58748455 6.63333096,3.46665174 6.63333096,3.29998579 C6.63333096,3.13331984 6.5083315,3.01248703 6.3458322,3.01248703 C6.1833329,3.01248703 6.05833344,3.13331984 6.05833344,3.29998579 C6.05833344,3.46665174 6.1833329,3.58748455 6.3458322,3.58748455 Z" id="Path"/>
                        <path d="M8.24166132,0 C7.43333147,0 6.95833351,0.529164388 6.95833351,1.14999505 C6.95833351,1.78332565 7.41249822,2.27915685 8.18332824,2.27915685 C8.72915922,2.27915685 9.10832425,2.02915793 9.2833235,1.66665949 L9.2833235,1.79999225 C9.2833235,2.72082162 8.84999203,3.22081946 8.26249456,3.22081946 C7.85832964,3.22081946 7.59583077,2.99165378 7.46666466,2.62082205 L7,2.62082205 C7.1708326,3.19581957 7.58333082,3.5999845 8.26249456,3.5999845 C9.14999074,3.5999845 9.70832167,2.86248767 9.70832167,1.7874923 C9.70832167,0.762496716 9.20415717,0 8.24166132,0 Z M8.25416127,1.93749166 C7.77083001,1.93749166 7.41666487,1.62915965 7.41666487,1.14999505 C7.41666487,0.670830444 7.77083001,0.362498439 8.25416127,0.362498439 C8.73332587,0.362498439 9.09999096,0.695830337 9.09999096,1.14999505 C9.09999096,1.62915965 8.72915922,1.93749166 8.25416127,1.93749166 Z" id="Shape"/>
                        <path d="M12.0958247,1.63749295 C12.4416565,1.48749359 12.6249891,1.21249478 12.6249891,0.883329529 C12.6249891,0.383331683 12.1999909,0 11.4291609,0 C10.6583309,0 10.2333327,0.383331683 10.2333327,0.883329529 C10.2333327,1.21249478 10.4166652,1.48749359 10.7624971,1.63749295 C10.2958324,1.79999225 10.0458335,2.14582409 10.0458335,2.55832232 C10.0458335,3.14165314 10.5333314,3.5999845 11.4291609,3.5999845 C12.3249903,3.5999845 12.8124882,3.14581979 12.8124882,2.55832232 C12.8124882,2.14582409 12.5624893,1.79999225 12.0958247,1.63749295 Z M11.4291609,0.337498547 C11.8624923,0.337498547 12.1666577,0.55416428 12.1666577,0.904162773 C12.1666577,1.25416127 11.8624923,1.48332695 11.4291609,1.48332695 C10.9958294,1.48332695 10.691664,1.25832791 10.691664,0.904162773 C10.691664,0.55416428 10.9958294,0.337498547 11.4291609,0.337498547 Z M11.4291609,3.23748606 C10.8958298,3.23748606 10.5249981,2.95832059 10.5249981,2.51248918 C10.5249981,2.07499106 10.8958298,1.79165895 11.4291609,1.79165895 C11.9624919,1.79165895 12.3333236,2.07499106 12.3333236,2.51248918 C12.3333236,2.95832059 11.9624919,3.23748606 11.4291609,3.23748606 Z" id="Shape"/>
                        <path d="M15.0833251,2 C15.333324,1.7874923 15.6958224,1.46666035 15.6958224,0.97916245 C15.6958224,0.479164603 15.3083241,0 14.5083276,0 C13.7583308,0 13.2541663,0.437498116 13.2083332,1.20832813 L13.6749978,1.20832813 C13.708331,0.641663903 14.0624961,0.379165034 14.5041609,0.379165034 C14.9499923,0.379165034 15.2249911,0.658330498 15.2249911,0.995829045 C15.2249911,1.32499429 14.9666589,1.55832662 14.7833264,1.72915922 L13.1666667,3.18748627 L13.1666667,3.54998471 L15.7749888,3.54998471 L15.7749888,3.14998643 L13.8083306,3.14998643 L15.0833251,2 Z" id="Path"/>
                    </g>
                    <rect id="Rectangle" stroke="#000000" x="0.5" y="0.5" width="69" height="69" rx="8"/>
                </g>
            </g>
        </g>
    </g>
</svg>