<svg xmlns="http://www.w3.org/2000/svg" xmlns:xlink="http://www.w3.org/1999/xlink" width="70px" height="70px" viewBox="0 0 70 70" version="1.1">
    <title>icon-ai</title>
    <g id="ðŸ–¥ï¸-Desktop" stroke="none" stroke-width="1" fill="none" fill-rule="evenodd">
        <g id="8.1-Recycling-" transform="translate(-726, -8345)">
            <g id="The-Northvolt-way" transform="translate(150, 7895)">
                <g id="icon-ai" transform="translate(576, 450)">
                    <g id="Co" transform="translate(17.15, 22.7001)" fill="#191919" fill-rule="nonzero">
                        <path d="M9.87495747,21.599907 C15.2499343,21.599907 18.6499197,18.0999221 19.0999177,13.8249405 L15.324934,13.8249405 C14.7499365,16.6999281 12.6249456,18.3999208 9.92495726,18.3999208 C6.34997265,18.3999208 3.82498353,15.4749334 3.82498353,10.7999535 C3.82498353,6.12497362 6.34997265,3.19998622 9.92495726,3.19998622 C12.5249461,3.19998622 14.5999371,4.74997954 15.2249344,7.44996792 L18.9999182,7.44996792 C18.4749204,3.32498568 15.1249349,0 9.87495747,0 C3.64998428,0 0,4.69997976 0,10.7999535 C0,16.8999272 3.64998428,21.599907 9.87495747,21.599907 Z" id="Path"/>
                        <path d="M28.3499683,21.599907 C33.2499472,21.599907 35.9249357,18.0499223 35.9249357,13.7999406 C35.9249357,9.54995887 33.2499472,5.99997416 28.3499683,5.99997416 C23.4499894,5.99997416 20.775001,9.54995887 20.775001,13.7999406 C20.775001,18.0499223 23.4499894,21.599907 28.3499683,21.599907 Z M28.3499683,19.1999173 C25.8999789,19.1999173 24.249986,17.1999259 24.249986,13.7999406 C24.249986,10.3999638 25.8999789,8.39996383 28.3499683,8.39996383 C30.7999578,8.39996383 32.4499507,10.3999638 32.4499507,13.7999406 C32.4499507,17.1999259 30.7999578,19.1999173 28.3499683,19.1999173 Z" id="Shape"/>
                    </g>
                    <g id="Cobalt" transform="translate(25.235, 52.03)" fill="#191919" fill-rule="nonzero">
                        <path d="M2.22832374,5.0399783 C3.406652,5.0399783 4.15914876,4.2641483 4.29331484,3.27248591 L3.77415041,3.27248591 C3.61665109,4.08914906 3.02165365,4.59664687 2.23415705,4.59664687 C1.22499472,4.59664687 0.524997739,3.76831711 0.524997739,2.51998915 C0.524997739,1.27166119 1.22499472,0.443331424 2.23415705,0.443331424 C2.9808205,0.443331424 3.55831801,0.898329465 3.73915056,1.63915961 L4.258315,1.63915961 C4.08914906,0.711663602 3.35415222,0 2.22832374,0 C0.810829842,0 0,1.1374951 0,2.51998915 C0,3.90248319 0.810829842,5.0399783 2.22832374,5.0399783 Z" id="Path"/>
                        <path d="M6.41082632,5.0399783 C7.49582165,5.0399783 8.0966524,4.20581522 8.0966524,3.21998613 C8.0966524,2.23415705 7.49582165,1.39999397 6.41082632,1.39999397 C5.325831,1.39999397 4.72500025,2.23415705 4.72500025,3.21998613 C4.72500025,4.20581522 5.325831,5.0399783 6.41082632,5.0399783 Z M6.41082632,4.6899798 C5.69332941,4.6899798 5.20916483,4.11248229 5.20916483,3.21998613 C5.20916483,2.32748998 5.69332941,1.74999246 6.41082632,1.74999246 C7.12832323,1.74999246 7.61248782,2.32748998 7.61248782,3.21998613 C7.61248782,4.11248229 7.12832323,4.6899798 6.41082632,4.6899798 Z" id="Shape"/>
                        <path d="M10.4591586,1.39999397 C9.86416111,1.39999397 9.43832962,1.68582607 9.18166405,2.11749088 L9.18166405,0.0699996985 L8.70916609,0.0699996985 L8.70916609,4.9699786 L9.15833082,4.9699786 L9.15833082,4.28164823 C9.40916307,4.73664627 9.84666119,5.0399783 10.4591586,5.0399783 C11.4741542,5.0399783 12.0341518,4.20581522 12.0341518,3.21998613 C12.0341518,2.23415705 11.4741542,1.39999397 10.4591586,1.39999397 Z M10.3599923,4.66664657 C9.66582864,4.66664657 9.16416413,4.09498237 9.16416413,3.21998613 C9.16416413,2.3449899 9.66582864,1.7733257 10.3599923,1.7733257 C11.0716559,1.7733257 11.5499872,2.3449899 11.5499872,3.21998613 C11.5499872,4.09498237 11.0658226,4.66664657 10.3599923,4.66664657 Z" id="Shape"/>
                        <path d="M15.7558194,4.60831349 C15.4874872,4.60831349 15.3941543,4.46248078 15.3941543,4.21164853 L15.3941543,2.56665561 C15.3941543,1.87832524 14.9566561,1.39999397 14.0816599,1.39999397 C13.2649968,1.39999397 12.7166658,1.81999216 12.6233329,2.53748907 L13.1074974,2.53748907 C13.1716638,2.01832464 13.5449956,1.73832585 14.0816599,1.73832585 C14.6299909,1.73832585 14.9333229,2.05332449 14.9333229,2.554989 L14.9333229,2.76498809 L13.5099957,3.04498689 C12.8099987,3.17915298 12.4775002,3.52915147 12.4775002,4.0483159 C12.4775002,4.66081326 12.967498,5.00497845 13.6324952,5.00497845 C14.2274926,5.00497845 14.7291571,4.74831288 14.9566561,4.32831469 C14.9741561,4.76581281 15.2133217,4.9699786 15.6216533,4.9699786 L15.8258191,4.9699786 L15.8258191,4.60831349 L15.7558194,4.60831349 Z M14.9333229,3.58165124 C14.9333229,4.21164853 14.4083252,4.66664657 13.743328,4.66664657 C13.2649968,4.66664657 12.9441648,4.43914755 12.9441648,4.02498267 C12.9441648,3.68081748 13.1716638,3.46498508 13.667495,3.35415222 L14.9333229,3.07998674 L14.9333229,3.58165124 Z" id="Shape"/>
                        <polygon id="Path" points="16.9399971 4.9699786 16.9399971 0.0699996985 16.4733325 0.0699996985 16.4733325 4.9699786"/>
                        <path d="M19.5824918,1.46999367 L18.6724957,1.46999367 L18.6724957,0.419998191 L18.1999977,0.419998191 L18.1999977,1.46999367 L17.6225002,1.46999367 L17.6225002,1.81999216 L18.1999977,1.81999216 L18.1999977,4.16498206 C18.1999977,4.75414619 18.5733295,4.9699786 19.0983272,4.9699786 L19.5824918,4.9699786 L19.5824918,4.57914695 L19.1916601,4.57914695 C18.8358283,4.57914695 18.6724957,4.42164763 18.6724957,4.07164913 L18.6724957,1.81999216 L19.5824918,1.81999216 L19.5824918,1.46999367 Z" id="Path"/>
                    </g>
                    <g id="27" transform="translate(11.1958, 10.45)" fill="#191919" fill-rule="nonzero">
                        <path d="M1.91665841,2 C2.16665734,1.7874923 2.52915577,1.46666035 2.52915577,0.97916245 C2.52915577,0.479164603 2.14165744,0 1.34166089,0 C0.591664119,0 0.0874996232,0.437498116 0.0416664872,1.20832813 L0.508331144,1.20832813 C0.541664334,0.641663903 0.895829475,0.379165034 1.33749424,0.379165034 C1.78332565,0.379165034 2.05832447,0.658330498 2.05832447,0.995829045 C2.05832447,1.32499429 1.79999225,1.55832662 1.6166597,1.72915922 L0,3.18748627 L0,3.54998471 L2.6083221,3.54998471 L2.6083221,3.14998643 L0.641663903,3.14998643 L1.91665841,2 Z" id="Path"/>
                        <polygon id="Path" points="2.94583357 0.449998062 5.03332458 0.449998062 3.27083217 3.54998471 3.77083001 3.54998471 5.53748907 0.412498224 5.53748907 0.0499997847 2.94583357 0.0499997847"/>
                    </g>
                    <g id="58.933" transform="translate(43.0458, 10.45)" fill="#191919" fill-rule="nonzero">
                        <path d="M1.49582689,1.21666143 C1.15832835,1.21666143 0.870829583,1.32499429 0.658330498,1.52499343 L0.899996124,0.437498116 L2.4541561,0.437498116 L2.4541561,0.0499997847 L0.541664334,0.0499997847 L0.12916611,1.99999139 L0.566664226,1.99999139 C0.724996878,1.72082592 1.03749553,1.56249327 1.35832748,1.56249327 C1.89582517,1.56249327 2.22082377,1.90415847 2.22082377,2.38332307 C2.22082377,2.90415416 1.86665863,3.22498611 1.37916073,3.22498611 C0.91249607,3.22498611 0.58749747,2.97915384 0.474997954,2.57498891 L0,2.57498891 C0.116666164,3.15831973 0.558330929,3.5999845 1.37916073,3.5999845 C2.19582388,3.5999845 2.70415502,3.09998665 2.70415502,2.37915642 C2.70415502,1.74165917 2.28749015,1.21666143 1.49582689,1.21666143 Z" id="Path"/>
                        <path d="M5.07915771,1.63749295 C5.42498956,1.48749359 5.6083221,1.21249478 5.6083221,0.883329529 C5.6083221,0.383331683 5.18332393,0 4.41249392,0 C3.6416639,0 3.21666573,0.383331683 3.21666573,0.883329529 C3.21666573,1.21249478 3.39999828,1.48749359 3.74583012,1.63749295 C3.27916546,1.79999225 3.02916654,2.14582409 3.02916654,2.55832232 C3.02916654,3.14165314 3.51666444,3.5999845 4.41249392,3.5999845 C5.30832339,3.5999845 5.79582129,3.14581979 5.79582129,2.55832232 C5.79582129,2.14582409 5.54582237,1.79999225 5.07915771,1.63749295 Z M4.41249392,0.337498547 C4.84582538,0.337498547 5.14999074,0.55416428 5.14999074,0.904162773 C5.14999074,1.25416127 4.84582538,1.48332695 4.41249392,1.48332695 C3.97916245,1.48332695 3.67499709,1.25832791 3.67499709,0.904162773 C3.67499709,0.55416428 3.97916245,0.337498547 4.41249392,0.337498547 Z M4.41249392,3.23748606 C3.87916288,3.23748606 3.50833114,2.95832059 3.50833114,2.51248918 C3.50833114,2.07499106 3.87916288,1.79165895 4.41249392,1.79165895 C4.94582495,1.79165895 5.31665669,2.07499106 5.31665669,2.51248918 C5.31665669,2.95832059 4.94582495,3.23748606 4.41249392,3.23748606 Z" id="Shape"/>
                        <path d="M6.41249858,3.58748455 C6.57499788,3.58748455 6.69999734,3.46665174 6.69999734,3.29998579 C6.69999734,3.13331984 6.57499788,3.01248703 6.41249858,3.01248703 C6.24999928,3.01248703 6.12499982,3.13331984 6.12499982,3.29998579 C6.12499982,3.46665174 6.24999928,3.58748455 6.41249858,3.58748455 Z" id="Path"/>
                        <path d="M8.3083277,0 C7.49999785,0 7.02499989,0.529164388 7.02499989,1.14999505 C7.02499989,1.78332565 7.4791646,2.27915685 8.24999462,2.27915685 C8.7958256,2.27915685 9.17499063,2.02915793 9.34998988,1.66665949 L9.34998988,1.79999225 C9.34998988,2.72082162 8.91665841,3.22081946 8.32916094,3.22081946 C7.92499602,3.22081946 7.66249715,2.99165378 7.53333104,2.62082205 L7.06666638,2.62082205 C7.23749898,3.19581957 7.6499972,3.5999845 8.32916094,3.5999845 C9.21665712,3.5999845 9.77498805,2.86248767 9.77498805,1.7874923 C9.77498805,0.762496716 9.27082355,0 8.3083277,0 Z M8.32082765,1.93749166 C7.83749639,1.93749166 7.48333125,1.62915965 7.48333125,1.14999505 C7.48333125,0.670830444 7.83749639,0.362498439 8.32082765,0.362498439 C8.79999225,0.362498439 9.16665734,0.695830337 9.16665734,1.14999505 C9.16665734,1.62915965 8.7958256,1.93749166 8.32082765,1.93749166 Z" id="Shape"/>
                        <path d="M12.0999913,1.66665949 C12.4541565,1.54166003 12.6499889,1.28749446 12.6499889,0.929162665 C12.6499889,0.416664872 12.2499907,0 11.4708274,0 C10.6958307,0 10.2374993,0.45833136 10.1958328,1.03749553 L10.6583309,1.03749553 C10.691664,0.612497362 11.0208293,0.35833179 11.4708274,0.35833179 C11.9083255,0.35833179 12.1791576,0.604164065 12.1791576,0.958329206 C12.1791576,1.32916094 11.8749923,1.52082678 11.4458275,1.52082678 L11.2208284,1.52082678 L11.2208284,1.85415868 L11.4499941,1.85415868 C11.9791585,1.85415868 12.3041571,2.09999096 12.3041571,2.51248918 C12.3041571,2.9333207 11.9749919,3.22498611 11.4666607,3.22498611 C10.9541629,3.22498611 10.6083311,2.9333207 10.5458313,2.4458228 L10.0791667,2.4458228 C10.1416664,3.10831995 10.5916645,3.5999845 11.4666607,3.5999845 C12.3333236,3.5999845 12.7874884,3.12081989 12.7874884,2.54165572 C12.7874884,2.12499085 12.5499894,1.81249219 12.0999913,1.66665949 Z" id="Path"/>
                        <path d="M15.0999913,1.66665949 C15.4541565,1.54166003 15.6499889,1.28749446 15.6499889,0.929162665 C15.6499889,0.416664872 15.2499907,0 14.4708274,0 C13.6958307,0 13.2374993,0.45833136 13.1958328,1.03749553 L13.6583309,1.03749553 C13.691664,0.612497362 14.0208293,0.35833179 14.4708274,0.35833179 C14.9083255,0.35833179 15.1791576,0.604164065 15.1791576,0.958329206 C15.1791576,1.32916094 14.8749923,1.52082678 14.4458275,1.52082678 L14.2208284,1.52082678 L14.2208284,1.85415868 L14.4499941,1.85415868 C14.9791585,1.85415868 15.3041571,2.09999096 15.3041571,2.51248918 C15.3041571,2.9333207 14.9749919,3.22498611 14.4666607,3.22498611 C13.9541629,3.22498611 13.6083311,2.9333207 13.5458313,2.4458228 L13.0791667,2.4458228 C13.1416664,3.10831995 13.5916645,3.5999845 14.4666607,3.5999845 C15.3333236,3.5999845 15.7874884,3.12081989 15.7874884,2.54165572 C15.7874884,2.12499085 15.5499894,1.81249219 15.0999913,1.66665949 Z" id="Path"/>
                    </g>
                    <rect id="Rectangle" stroke="#000000" x="0.5" y="0.5" width="69" height="69" rx="8"/>
                </g>
            </g>
        </g>
    </g>
</svg>